<svg width="24" height="24" viewBox="0 0 24 24" fill="none" xmlns="http://www.w3.org/2000/svg">
<path d="M0 12C0 5.37258 5.37258 0 12 0C18.6274 0 24 5.37258 24 12C24 18.6274 18.6274 24 12 24C5.37258 24 0 18.6274 0 12Z" fill="#6565F2"/>
<path d="M3 11.8571C3 13.0406 3.95939 14 5.14286 14H5.72727C6.98247 14 8 12.9825 8 11.7273V10.9231C8 9.86099 7.13901 9 6.07692 9H5.85714C4.27919 9 3 10.2792 3 11.8571V11.8571Z" fill="#FFE42E"/>
<path d="M10 11.8571C10 13.0406 10.9594 14 12.1429 14H18.5C19.8807 14 21 12.8807 21 11.5V11.5C21 10.1193 19.8807 9 18.5 9H12.8571C11.2792 9 10 10.2792 10 11.8571V11.8571Z" fill="white"/>
</svg>
