<svg width="24" height="24" fill="none" xmlns="http://www.w3.org/2000/svg">
	<g clip-path="url(#clip0)">
		<path fill-rule="evenodd" clip-rule="evenodd"
			  d="M12 0C5.37258 0 0 5.37258 0 12c0 6.6274 5.37258 12 12 12 6.6274 0 12-5.3726 12-12 0-6.62742-5.3726-12-12-12zM6.63604 7.63604l5.16786 5.16786 4.6597-2.6903c.4782-.2761 1.0898-.1122 1.366.3661.2761.4783.1122 1.0898-.366 1.366l-5.2973 3.0584c-.3897.2249-.8678.1578-1.181-.1334-.0738-.0457-.1436-.1006-.2076-.1646L5.22183 9.05025c-.39053-.39052-.39053-1.02369 0-1.41421.39052-.39053 1.02368-.39053 1.41421 0z"
			  fill="#6565F2"/>
	</g>
	<defs>
		<clipPath id="clip0">
			<path fill="#fff" d="M0 0h24v24H0z"/>
		</clipPath>
	</defs>
</svg>
