<svg width="36" height="36" viewBox="0 0 36 36" fill="none" xmlns="http://www.w3.org/2000/svg">
	<circle cx="18" cy="18" r="18" fill="#6565F2"/>
	<path d="M17.0815 8.13274C17.4286 7.32678 18.5714 7.32678 18.9185 8.13274L21.0097 12.9889C21.1545 13.325 21.4714 13.5553 21.8358 13.5891L27.1005 14.0773C27.9743 14.1584 28.3274 15.2452 27.6681 15.8244L23.6959 19.3139C23.4209 19.5555 23.2999 19.928 23.3804 20.285L24.5429 25.4429C24.7358 26.299 23.8113 26.9707 23.0568 26.5226L18.5106 23.8232C18.1958 23.6363 17.8042 23.6363 17.4894 23.8232L12.9432 26.5226C12.1887 26.9707 11.2642 26.299 11.4571 25.4429L12.6196 20.285C12.7001 19.928 12.5791 19.5555 12.3041 19.3139L8.33186 15.8244C7.6726 15.2452 8.02573 14.1584 8.8995 14.0773L14.1642 13.5891C14.5286 13.5553 14.8455 13.325 14.9903 12.9889L17.0815 8.13274Z" fill="white"/>
</svg>
