<svg width="24" height="24" viewBox="0 0 24 24" fill="none" xmlns="http://www.w3.org/2000/svg">
	<path fill-rule="evenodd" clip-rule="evenodd" d="M24 12C24 18.6274 18.6274 24 12 24C5.37258 24 4.69686e-07 18.6274 1.04907e-06 12C1.62846e-06 5.37258 5.37259 -1.62846e-06 12 -1.04907e-06C18.6274 -4.69686e-07 24 5.37258 24 12ZM13.9861 15.1865L9.24351 18.9514C7.93279 19.9919 6 19.0585 6 17.385L6 6.61503C6 4.94151 7.9328 4.00808 9.24351 5.04861L13.9861 8.81351L11.9542 10.4378C10.9526 11.2385 10.9526 12.7615 11.9542 13.5622L13.9861 15.1865Z" fill="#6565F2"/>
	<path d="M13.0294 11.2076C12.5094 11.6079 12.5094 12.3921 13.0294 12.7924L17.14 15.9568C17.7976 16.463 18.75 15.9942 18.75 15.1644V8.83563C18.75 8.00579 17.7976 7.53702 17.14 8.04322L13.0294 11.2076Z" fill="#FFE42E"/>
</svg>
