<svg width="36" height="36" viewBox="0 0 36 36" fill="none" xmlns="http://www.w3.org/2000/svg">
	<mask id="path-1-outside-1" maskUnits="userSpaceOnUse" x="-2" y="-2" width="40" height="40" fill="black">
		<rect fill="white" x="-2" y="-2" width="40" height="40"/>
		<path fill-rule="evenodd" clip-rule="evenodd" d="M18 0C8.05888 0 0 8.05888 0 18C0 27.9411 8.05888 36 18 36C27.9411 36 36 27.9411 36 18C36 8.05888 27.9411 0 18 0ZM23.4737 25C20.4507 25 18 22.5493 18 19.5263V18.8095C18 15.0487 21.0487 12 24.8095 12C28.2284 12 31 14.7716 31 18.1905V18.8421C31 22.243 28.243 25 24.8421 25H23.4737Z"/>
	</mask>
	<path fill-rule="evenodd" clip-rule="evenodd" d="M18 0C8.05888 0 0 8.05888 0 18C0 27.9411 8.05888 36 18 36C27.9411 36 36 27.9411 36 18C36 8.05888 27.9411 0 18 0ZM23.4737 25C20.4507 25 18 22.5493 18 19.5263V18.8095C18 15.0487 21.0487 12 24.8095 12C28.2284 12 31 14.7716 31 18.1905V18.8421C31 22.243 28.243 25 24.8421 25H23.4737Z" fill="#6565F2"/>
	<path d="M2 18C2 9.16344 9.16344 2 18 2V-2C6.95431 -2 -2 6.95431 -2 18H2ZM18 34C9.16344 34 2 26.8366 2 18H-2C-2 29.0457 6.95431 38 18 38V34ZM34 18C34 26.8366 26.8366 34 18 34V38C29.0457 38 38 29.0457 38 18H34ZM18 2C26.8366 2 34 9.16344 34 18H38C38 6.95431 29.0457 -2 18 -2V2ZM16 19.5263C16 23.6539 19.3461 27 23.4737 27V23C21.5552 23 20 21.4448 20 19.5263H16ZM16 18.8095V19.5263H20V18.8095H16ZM24.8095 10C19.9442 10 16 13.9442 16 18.8095H20C20 16.1533 22.1533 14 24.8095 14V10ZM33 18.1905C33 13.667 29.333 10 24.8095 10V14C27.1239 14 29 15.8761 29 18.1905H33ZM33 18.8421V18.1905H29V18.8421H33ZM24.8421 27C29.3476 27 33 23.3476 33 18.8421H29C29 21.1384 27.1384 23 24.8421 23V27ZM23.4737 27H24.8421V23H23.4737V27Z" fill="white" mask="url(#path-1-outside-1)"/>
	<path fill-rule="evenodd" clip-rule="evenodd" d="M12 30C8.68629 30 6 27.3137 6 24V14C6 9.58172 9.58172 6 14 6H16C18.728 6 20.9458 8.18475 20.999 10.9C18.0388 12.3471 16 15.3878 16 18.9048V19.8421C16 22.9484 17.9786 25.5925 20.7443 26.5829C20.0821 28.5685 18.2082 30 16 30H12Z" fill="#FFE42E"/>
</svg>
