<svg width="24" height="24" viewBox="0 0 36 36" fill="none" xmlns="http://www.w3.org/2000/svg">
	<path fill-rule="evenodd" clip-rule="evenodd" d="M0 18C0 8.05888 8.05888 0 18 0C27.9411 0 36 8.05888 36 18C36 27.9411 27.9411 36 18 36C8.05888 36 0 27.9411 0 18ZM12.0398 14C12.4069 10.626 15.2652 8 18.7368 8H20.4211C24.6068 8 28 11.3932 28 15.5789V16.381C28 20.3809 24.9177 23.6609 20.9987 23.9753C20.9996 23.9324 21 23.8893 21 23.8462V21.2727C21 17.2561 17.7439 14 13.7273 14H12.0398Z" fill="#6565F2"/>
	<path d="M8 21.2857C8 18.9188 9.91878 17 12.2857 17H13.4545C15.9649 17 18 19.0351 18 21.5455V23.1538C18 25.278 16.278 27 14.1538 27H13.7143C10.5584 27 8 24.4416 8 21.2857Z" fill="#FFE42E"/>
</svg>
