<svg width="24" height="24" viewBox="0 0 24 24" fill="none" xmlns="http://www.w3.org/2000/svg">
	<mask id="mask0" maskUnits="userSpaceOnUse" x="0" y="0" width="24" height="24" style="mask-type: alpha">
		<rect width="24" height="24" rx="12" fill="#6565F2" />
	</mask>
	<g mask="url(#mask0)">
		<path d="M0 12C0 5.37258 5.37258 0 12 0V0C18.6274 0 24 5.37258 24 12V12C24 18.6274 18.6274 24 12 24V24C5.37258 24 0 18.6274 0 12V12Z" fill="#6565F2"/>
		<path d="M17.3982 8.99283C17.8831 9.39282 17.8831 10.1358 17.3982 10.5357L14.9673 12.5407C14.315 13.0787 13.331 12.6147 13.331 11.7692V7.75933C13.331 6.91386 14.315 6.44992 14.9673 6.98788L17.3982 8.99283Z" fill="white"/>
		<path d="M6.60184 8.99283C6.11689 9.39282 6.11689 10.1358 6.60184 10.5357L9.03272 12.5407C9.68496 13.0787 10.669 12.6147 10.669 11.7692V7.75933C10.669 6.91386 9.68496 6.44992 9.03272 6.98788L6.60184 8.99283Z" fill="white"/>
		<path d="M7 18.2751C7 18.8033 7.42818 19.2314 7.95637 19.2314H8.2172C8.7774 19.2314 9.23154 18.7773 9.23154 18.2171V17.8582C9.23154 17.3842 8.84727 16.9999 8.37325 16.9999H8.27517C7.57091 16.9999 7 17.5708 7 18.2751V18.2751Z" fill="#FFE42E"/>
		<path d="M10.7192 18.2751C10.7192 18.8033 11.1474 19.2314 11.6756 19.2314H11.9364C12.4966 19.2314 12.9508 18.7773 12.9508 18.2171V17.8582C12.9508 17.3842 12.5665 16.9999 12.0925 16.9999H11.9944C11.2901 16.9999 10.7192 17.5708 10.7192 18.2751V18.2751Z" fill="#FFE42E"/>
		<path d="M14.4385 18.2751C14.4385 18.8033 14.8667 19.2314 15.3948 19.2314H15.6557C16.2159 19.2314 16.67 18.7773 16.67 18.2171V17.8582C16.67 17.3842 16.2857 16.9999 15.8117 16.9999H15.7136C15.0094 16.9999 14.4385 17.5708 14.4385 18.2751V18.2751Z" fill="#FFE42E"/>
	</g>
</svg>
