<svg width="24" height="24" viewBox="0 0 24 24" fill="none" xmlns="http://www.w3.org/2000/svg">
	<path fill-rule="evenodd" clip-rule="evenodd" d="M12 0C5.37258 0 0 5.37258 0 12C0 18.6274 5.37258 24 12 24C18.6274 24 24 18.6274 24 12C24 5.37258 18.6274 0 12 0ZM8.85456 12.3999C8.85456 9.09043 11.5325 6.3999 14.8546 6.3999C18.164 6.3999 20.8419 9.09043 20.8546 12.3999C20.8546 15.7094 18.164 18.3999 14.8546 18.3999C11.5451 18.3999 8.85456 15.7094 8.85456 12.3999ZM13.3514 12.3999C13.3514 13.2336 14.0209 13.9031 14.8546 13.9031C15.6756 13.9031 16.3451 13.2336 16.3577 12.3999C16.3577 11.5662 15.6882 10.8967 14.8546 10.8967C14.0209 10.8967 13.3514 11.5662 13.3514 12.3999ZM5.82298 10.8967C4.9893 10.8967 4.31982 11.5662 4.31982 12.3999C4.31982 13.2336 4.9893 13.9031 5.82298 13.9031C6.65667 13.9031 7.32614 13.2336 7.32614 12.3999C7.32614 11.5662 6.65667 10.8967 5.82298 10.8967Z" fill="#6565F2"/>
</svg>
