<svg width="24" height="24" viewBox="0 0 24 24" fill="none" xmlns="http://www.w3.org/2000/svg">
	<path fill-rule="evenodd" clip-rule="evenodd" d="M12 0C18.6274 0 24 5.37258 24 12C24 18.6274 18.6274 24 12 24C5.37258 24 0 18.6274 0 12C0 5.37258 5.37258 0 12 0ZM7 7C4.79086 7 3 8.79086 3 11C3 12.1046 3.89543 13 5 13H8C9.10457 13 10 12.1046 10 11V9C10 7.89543 9.10457 7 8 7H7ZM16 4C18.2091 4 20 5.79086 20 8V16C20 17.5142 19.1587 18.8319 17.9179 19.5111C16.949 20.0414 16 19.1046 16 18V15C16 13.8954 15.1046 13 14 13C12.8954 13 12 12.1046 12 11V6C12 4.89543 12.8954 4 14 4H16ZM8 15C6.89543 15 6 15.8954 6 17C6 19.2091 7.79086 21 10 21H12C13.1046 21 14 20.1046 14 19V17C14 15.8954 13.1046 15 12 15H8Z" fill="#6565F2"/>
</svg>
