<svg width="24" height="24" viewBox="0 0 24 24" fill="none" xmlns="http://www.w3.org/2000/svg">
	<rect y="24" width="24" height="24" rx="12" transform="rotate(-90 0 24)" fill="white"/>
	<path fill-rule="evenodd" clip-rule="evenodd" d="M0 12C0 18.6274 5.37258 24 12 24C18.6274 24 24 18.6274 24 12C24 5.37258 18.6274 0 12 0C5.37258 0 0 5.37258 0 12ZM20 14.5455C20 17.5579 17.5579 20 14.5455 20H10.1538C6.75517 20 4 17.2448 4 13.8462C4 11.9122 5.42745 10.3116 7.28625 10.0405C8.25862 11.9925 10.2743 13.3335 12.6032 13.3335H13.2281C15.1634 13.3335 16.8296 12.1814 17.5783 10.5256C19.0187 11.2882 20 12.8022 20 14.5455ZM13.0175 12C15.0329 12 16.6667 10.3662 16.6667 8.35088V7.4386C16.6667 5.17132 14.8287 3.33333 12.5614 3.33333H12.127C9.84771 3.33333 8 5.18105 8 7.46032C8 9.96751 10.0325 12 12.5397 12H13.0175Z" fill="#777"/>
</svg>
