<svg width="20" height="20" viewBox="0 0 20 20" fill="none" xmlns="http://www.w3.org/2000/svg">
<path d="M12.3564 9.9991L19.5113 2.84413C19.8238 2.53161 19.9994 2.10776 19.9994 1.6658C19.9994 1.22384 19.8238 0.799982 19.5113 0.487469C19.1988 0.174957 18.775 -0.000610352 18.333 -0.000610352C17.891 -0.000610352 17.4672 0.174957 17.1547 0.487469L9.99971 7.64244L2.84474 0.487469C2.69 0.332729 2.50629 0.209982 2.30411 0.126237C2.10194 0.0424925 1.88524 -0.00061035 1.66641 -0.000610352C1.44757 -0.000610353 1.23088 0.0424925 1.0287 0.126237C0.826523 0.209982 0.64282 0.332729 0.48808 0.487469C0.333339 0.64221 0.210593 0.825913 0.126848 1.02809C0.0431029 1.23027 -1.63045e-09 1.44696 0 1.6658C1.63045e-09 1.88463 0.0431028 2.10133 0.126848 2.3035C0.210593 2.50568 0.333339 2.68939 0.48808 2.84413L7.64305 9.9991L0.48808 17.1541C0.175568 17.4666 0 17.8904 0 18.3324C0 18.7744 0.175568 19.1982 0.48808 19.5107C0.800592 19.8232 1.22445 19.9988 1.66641 19.9988C2.10837 19.9988 2.53222 19.8232 2.84474 19.5107L9.99971 12.3558L17.1547 19.5107C17.3091 19.666 17.4927 19.7893 17.6949 19.8734C17.8971 19.9575 18.114 20.0008 18.333 20.0008C18.552 20.0008 18.7689 19.9575 18.9711 19.8734C19.1733 19.7893 19.3569 19.666 19.5113 19.5107C19.6662 19.3561 19.7891 19.1724 19.873 18.9702C19.9568 18.768 20 18.5513 20 18.3324C20 18.1135 19.9568 17.8968 19.873 17.6946C19.7891 17.4924 19.6662 17.3087 19.5113 17.1541L12.3564 9.9991Z" fill="currentColor" />
<path d="M12.3564 9.9991L19.5113 2.84413C19.8238 2.53161 19.9994 2.10776 19.9994 1.6658C19.9994 1.22384 19.8238 0.799982 19.5113 0.487469C19.1988 0.174957 18.775 -0.000610352 18.333 -0.000610352C17.891 -0.000610352 17.4672 0.174957 17.1547 0.487469L9.99971 7.64244L2.84474 0.487469C2.69 0.332729 2.50629 0.209982 2.30411 0.126237C2.10194 0.0424925 1.88524 -0.00061035 1.66641 -0.000610352C1.44757 -0.000610353 1.23088 0.0424925 1.0287 0.126237C0.826523 0.209982 0.64282 0.332729 0.48808 0.487469C0.333339 0.64221 0.210593 0.825913 0.126848 1.02809C0.0431029 1.23027 -1.63045e-09 1.44696 0 1.6658C1.63045e-09 1.88463 0.0431028 2.10133 0.126848 2.3035C0.210593 2.50568 0.333339 2.68939 0.48808 2.84413L7.64305 9.9991L0.48808 17.1541C0.175568 17.4666 0 17.8904 0 18.3324C0 18.7744 0.175568 19.1982 0.48808 19.5107C0.800592 19.8232 1.22445 19.9988 1.66641 19.9988C2.10837 19.9988 2.53222 19.8232 2.84474 19.5107L9.99971 12.3558L17.1547 19.5107C17.3091 19.666 17.4927 19.7893 17.6949 19.8734C17.8971 19.9575 18.114 20.0008 18.333 20.0008C18.552 20.0008 18.7689 19.9575 18.9711 19.8734C19.1733 19.7893 19.3569 19.666 19.5113 19.5107C19.6662 19.3561 19.7891 19.1724 19.873 18.9702C19.9568 18.768 20 18.5513 20 18.3324C20 18.1135 19.9568 17.8968 19.873 17.6946C19.7891 17.4924 19.6662 17.3087 19.5113 17.1541L12.3564 9.9991Z" fill="currentColor" />
</svg>
