<svg width="20" height="20" viewBox="0 0 20 20" fill="none" xmlns="http://www.w3.org/2000/svg">
<path d="M5.00094 9.50048C5.00086 9.82885 4.9361 10.154 4.81036 10.4573C4.68463 10.7607 4.50037 11.0363 4.26813 11.2684C4.03588 11.5005 3.76018 11.6846 3.45678 11.8102C3.15338 11.9358 2.82821 12.0004 2.49984 12.0003C2.17148 12.0002 1.84634 11.9355 1.543 11.8098C1.23966 11.684 0.96406 11.4998 0.731928 11.2675C0.499796 11.0353 0.315682 10.7596 0.190098 10.4562C0.0645135 10.1528 -8.19978e-05 9.8276 7.81168e-08 9.49923C0.000165838 8.83607 0.263766 8.20013 0.732812 7.73132C1.20186 7.26251 1.83793 6.99922 2.50109 6.99939C3.16426 6.99956 3.8002 7.26316 4.26901 7.7322C4.73782 8.20125 5.0011 8.83732 5.00094 9.50048ZM12.5005 9.50048C12.5004 9.82885 12.4356 10.154 12.3099 10.4573C12.1842 10.7607 11.9999 11.0363 11.7677 11.2684C11.5354 11.5005 11.2597 11.6846 10.9563 11.8102C10.6529 11.9358 10.3277 12.0004 9.99937 12.0003C9.67101 12.0002 9.34587 11.9355 9.04253 11.8098C8.73919 11.684 8.46359 11.4998 8.23146 11.2675C7.99933 11.0353 7.81521 10.7596 7.68963 10.4562C7.56404 10.1528 7.49945 9.8276 7.49953 9.49923C7.4997 8.83607 7.7633 8.20013 8.23234 7.73132C8.70139 7.26251 9.33746 6.99922 10.0006 6.99939C10.6638 6.99956 11.2997 7.26316 11.7685 7.7322C12.2374 8.20125 12.5006 8.83732 12.5005 9.50048ZM20 9.50048C19.9999 9.82885 19.9352 10.154 19.8094 10.4573C19.6837 10.7607 19.4994 11.0363 19.2672 11.2684C19.0349 11.5005 18.7592 11.6846 18.4558 11.8102C18.1524 11.9358 17.8273 12.0004 17.4989 12.0003C17.1705 12.0002 16.8454 11.9355 16.5421 11.8098C16.2387 11.684 15.9631 11.4998 15.731 11.2675C15.4989 11.0353 15.3147 10.7596 15.1892 10.4562C15.0636 10.1528 14.999 9.8276 14.9991 9.49923C14.9992 8.83607 15.2628 8.20013 15.7319 7.73132C16.2009 7.26251 16.837 6.99922 17.5002 6.99939C18.1633 6.99956 18.7993 7.26316 19.2681 7.7322C19.7369 8.20125 20.0002 8.83732 20 9.50048Z" fill="currentColor" />
<path d="M5.00094 9.50048C5.00086 9.82885 4.9361 10.154 4.81036 10.4573C4.68463 10.7607 4.50037 11.0363 4.26813 11.2684C4.03588 11.5005 3.76018 11.6846 3.45678 11.8102C3.15338 11.9358 2.82821 12.0004 2.49984 12.0003C2.17148 12.0002 1.84634 11.9355 1.543 11.8098C1.23966 11.684 0.96406 11.4998 0.731928 11.2675C0.499796 11.0353 0.315682 10.7596 0.190098 10.4562C0.0645135 10.1528 -8.19978e-05 9.8276 7.81168e-08 9.49923C0.000165838 8.83607 0.263766 8.20013 0.732812 7.73132C1.20186 7.26251 1.83793 6.99922 2.50109 6.99939C3.16426 6.99956 3.8002 7.26316 4.26901 7.7322C4.73782 8.20125 5.0011 8.83732 5.00094 9.50048ZM12.5005 9.50048C12.5004 9.82885 12.4356 10.154 12.3099 10.4573C12.1842 10.7607 11.9999 11.0363 11.7677 11.2684C11.5354 11.5005 11.2597 11.6846 10.9563 11.8102C10.6529 11.9358 10.3277 12.0004 9.99937 12.0003C9.67101 12.0002 9.34587 11.9355 9.04253 11.8098C8.73919 11.684 8.46359 11.4998 8.23146 11.2675C7.99933 11.0353 7.81521 10.7596 7.68963 10.4562C7.56404 10.1528 7.49945 9.8276 7.49953 9.49923C7.4997 8.83607 7.7633 8.20013 8.23234 7.73132C8.70139 7.26251 9.33746 6.99922 10.0006 6.99939C10.6638 6.99956 11.2997 7.26316 11.7685 7.7322C12.2374 8.20125 12.5006 8.83732 12.5005 9.50048ZM20 9.50048C19.9999 9.82885 19.9352 10.154 19.8094 10.4573C19.6837 10.7607 19.4994 11.0363 19.2672 11.2684C19.0349 11.5005 18.7592 11.6846 18.4558 11.8102C18.1524 11.9358 17.8273 12.0004 17.4989 12.0003C17.1705 12.0002 16.8454 11.9355 16.5421 11.8098C16.2387 11.684 15.9631 11.4998 15.731 11.2675C15.4989 11.0353 15.3147 10.7596 15.1892 10.4562C15.0636 10.1528 14.999 9.8276 14.9991 9.49923C14.9992 8.83607 15.2628 8.20013 15.7319 7.73132C16.2009 7.26251 16.837 6.99922 17.5002 6.99939C18.1633 6.99956 18.7993 7.26316 19.2681 7.7322C19.7369 8.20125 20.0002 8.83732 20 9.50048Z" fill="currentColor" />
</svg>
