<svg width="20" height="20" viewBox="0 0 20 20" fill="none" xmlns="http://www.w3.org/2000/svg">
<path d="M5.6679 19.9994C4.92288 20.0014 4.18486 19.8556 3.49657 19.5704C2.80827 19.2853 2.18337 18.8665 1.65804 18.3382C0.596298 17.2743 0 15.8326 0 14.3295C0 12.8265 0.596298 11.3848 1.65804 10.3209L4.11545 7.86601C4.34983 7.63164 4.66772 7.49996 4.99918 7.49996C5.33064 7.49996 5.64852 7.63164 5.8829 7.86601C6.11727 8.10039 6.24895 8.41828 6.24895 8.74973C6.24895 9.08119 6.11727 9.39908 5.8829 9.63346L3.42548 12.0884C2.8324 12.6835 2.49938 13.4894 2.49938 14.3295C2.49938 15.1697 2.8324 15.9756 3.42548 16.5707C4.62669 17.7694 6.71412 17.7682 7.90908 16.5707L10.3665 14.1158C10.4825 13.9997 10.6203 13.9075 10.772 13.8447C10.9237 13.7818 11.0862 13.7494 11.2504 13.7493C11.4146 13.7493 11.5772 13.7815 11.7289 13.8443C11.8806 13.9071 12.0184 13.9991 12.1346 14.1152C12.2507 14.2312 12.3428 14.369 12.4057 14.5207C12.4686 14.6723 12.501 14.8349 12.5011 14.9991C12.5011 15.1633 12.4688 15.3258 12.4061 15.4776C12.3433 15.6293 12.2512 15.7671 12.1352 15.8832L9.67777 18.3382C9.1526 18.8667 8.52773 19.2857 7.8394 19.5708C7.15107 19.856 6.41296 20.0016 5.6679 19.9994ZM15.0013 12.4996C14.7539 12.5002 14.5119 12.4272 14.306 12.2899C14.1001 12.1527 13.9396 11.9573 13.8449 11.7287C13.7502 11.5001 13.7256 11.2485 13.7741 11.0059C13.8227 10.7632 13.9423 10.5405 14.1176 10.3659L16.575 7.91101C17.1681 7.31592 17.5011 6.51 17.5011 5.66984C17.5011 4.82967 17.1681 4.02376 16.575 3.42866C15.3738 2.22995 13.2864 2.23245 12.0914 3.42866L9.63402 5.88358C9.51797 5.99971 9.38018 6.09185 9.22852 6.15474C9.07686 6.21762 8.9143 6.25001 8.75012 6.25007C8.58594 6.25013 8.42335 6.21785 8.27165 6.15507C8.11994 6.0923 7.98209 6.00026 7.86595 5.88421C7.74982 5.76815 7.65768 5.63036 7.5948 5.4787C7.53192 5.32704 7.49952 5.16448 7.49946 5.0003C7.49941 4.83612 7.53169 4.67354 7.59446 4.52183C7.65724 4.37013 7.74928 4.23227 7.86533 4.11614L10.3227 1.66122C10.8479 1.13271 11.4728 0.713726 12.1611 0.428565C12.8495 0.143404 13.5876 -0.00225808 14.3326 2.64617e-05C15.8463 2.64617e-05 17.2713 0.590007 18.3425 1.66122C19.4039 2.72528 20 4.16688 20 5.66984C20 7.17279 19.4039 8.61439 18.3425 9.67845L15.8851 12.1334C15.7691 12.2496 15.6314 12.3418 15.4797 12.4047C15.3281 12.4675 15.1655 12.4998 15.0013 12.4996ZM7.49909 13.7496C7.25164 13.7501 7.00961 13.6771 6.80372 13.5399C6.59782 13.4026 6.43735 13.2073 6.34266 12.9787C6.24798 12.7501 6.22335 12.4985 6.2719 12.2558C6.32045 12.0132 6.44 11.7905 6.61537 11.6159L11.6165 6.61606C11.7325 6.49992 11.8703 6.40778 12.022 6.3449C12.1736 6.28202 12.3362 6.24962 12.5004 6.24957C12.6645 6.24951 12.8271 6.28179 12.9788 6.34456C13.1305 6.40734 13.2684 6.49938 13.3845 6.61543C13.5007 6.73148 13.5928 6.86927 13.6557 7.02093C13.7186 7.17259 13.751 7.33515 13.751 7.49933C13.7511 7.66352 13.7188 7.8261 13.656 7.9778C13.5932 8.12951 13.5012 8.26736 13.3851 8.3835L8.38406 13.3833C8.26787 13.4996 8.1299 13.5917 7.97805 13.6546C7.82619 13.7174 7.66344 13.7497 7.49909 13.7496Z" fill="currentColor" />
<path d="M5.6679 19.9994C4.92288 20.0014 4.18486 19.8556 3.49657 19.5704C2.80827 19.2853 2.18337 18.8665 1.65804 18.3382C0.596298 17.2743 0 15.8326 0 14.3295C0 12.8265 0.596298 11.3848 1.65804 10.3209L4.11545 7.86601C4.34983 7.63164 4.66772 7.49996 4.99918 7.49996C5.33064 7.49996 5.64852 7.63164 5.8829 7.86601C6.11727 8.10039 6.24895 8.41828 6.24895 8.74973C6.24895 9.08119 6.11727 9.39908 5.8829 9.63346L3.42548 12.0884C2.8324 12.6835 2.49938 13.4894 2.49938 14.3295C2.49938 15.1697 2.8324 15.9756 3.42548 16.5707C4.62669 17.7694 6.71412 17.7682 7.90908 16.5707L10.3665 14.1158C10.4825 13.9997 10.6203 13.9075 10.772 13.8447C10.9237 13.7818 11.0862 13.7494 11.2504 13.7493C11.4146 13.7493 11.5772 13.7815 11.7289 13.8443C11.8806 13.9071 12.0184 13.9991 12.1346 14.1152C12.2507 14.2312 12.3428 14.369 12.4057 14.5207C12.4686 14.6723 12.501 14.8349 12.5011 14.9991C12.5011 15.1633 12.4688 15.3258 12.4061 15.4776C12.3433 15.6293 12.2512 15.7671 12.1352 15.8832L9.67777 18.3382C9.1526 18.8667 8.52773 19.2857 7.8394 19.5708C7.15107 19.856 6.41296 20.0016 5.6679 19.9994ZM15.0013 12.4996C14.7539 12.5002 14.5119 12.4272 14.306 12.2899C14.1001 12.1527 13.9396 11.9573 13.8449 11.7287C13.7502 11.5001 13.7256 11.2485 13.7741 11.0059C13.8227 10.7632 13.9423 10.5405 14.1176 10.3659L16.575 7.91101C17.1681 7.31592 17.5011 6.51 17.5011 5.66984C17.5011 4.82967 17.1681 4.02376 16.575 3.42866C15.3738 2.22995 13.2864 2.23245 12.0914 3.42866L9.63402 5.88358C9.51797 5.99971 9.38018 6.09185 9.22852 6.15474C9.07686 6.21762 8.9143 6.25001 8.75012 6.25007C8.58594 6.25013 8.42335 6.21785 8.27165 6.15507C8.11994 6.0923 7.98209 6.00026 7.86595 5.88421C7.74982 5.76815 7.65768 5.63036 7.5948 5.4787C7.53192 5.32704 7.49952 5.16448 7.49946 5.0003C7.49941 4.83612 7.53169 4.67354 7.59446 4.52183C7.65724 4.37013 7.74928 4.23227 7.86533 4.11614L10.3227 1.66122C10.8479 1.13271 11.4728 0.713726 12.1611 0.428565C12.8495 0.143404 13.5876 -0.00225808 14.3326 2.64617e-05C15.8463 2.64617e-05 17.2713 0.590007 18.3425 1.66122C19.4039 2.72528 20 4.16688 20 5.66984C20 7.17279 19.4039 8.61439 18.3425 9.67845L15.8851 12.1334C15.7691 12.2496 15.6314 12.3418 15.4797 12.4047C15.3281 12.4675 15.1655 12.4998 15.0013 12.4996ZM7.49909 13.7496C7.25164 13.7501 7.00961 13.6771 6.80372 13.5399C6.59782 13.4026 6.43735 13.2073 6.34266 12.9787C6.24798 12.7501 6.22335 12.4985 6.2719 12.2558C6.32045 12.0132 6.44 11.7905 6.61537 11.6159L11.6165 6.61606C11.7325 6.49992 11.8703 6.40778 12.022 6.3449C12.1736 6.28202 12.3362 6.24962 12.5004 6.24957C12.6645 6.24951 12.8271 6.28179 12.9788 6.34456C13.1305 6.40734 13.2684 6.49938 13.3845 6.61543C13.5007 6.73148 13.5928 6.86927 13.6557 7.02093C13.7186 7.17259 13.751 7.33515 13.751 7.49933C13.7511 7.66352 13.7188 7.8261 13.656 7.9778C13.5932 8.12951 13.5012 8.26736 13.3851 8.3835L8.38406 13.3833C8.26787 13.4996 8.1299 13.5917 7.97805 13.6546C7.82619 13.7174 7.66344 13.7497 7.49909 13.7496Z" fill="currentColor" />
</svg>
