<svg width="20" height="20" viewBox="0 0 20 20" fill="none" xmlns="http://www.w3.org/2000/svg">
<path d="M7.5 7.49939H10.9588V9.27189H11.0088C11.49 8.40814 12.6675 7.49939 14.4237 7.49939C18.075 7.49939 18.75 9.77189 18.75 12.7281V18.7494H15.1437V13.4119C15.1437 12.1394 15.1175 10.5006 13.2687 10.5006C11.3912 10.5006 11.1038 11.8869 11.1038 13.3194V18.7494H7.5V7.49939Z" fill="currentColor" />
<path d="M1.25 7.49939H5V18.7494H1.25V7.49939Z" fill="currentColor" />
<path d="M5 4.37439C5 5.40939 4.16 6.24939 3.125 6.24939C2.09 6.24939 1.25 5.40939 1.25 4.37439C1.25 3.33939 2.09 2.49939 3.125 2.49939C4.16 2.49939 5 3.33939 5 4.37439Z" fill="currentColor" />
</svg>
