<svg width="20" height="20" viewBox="0 0 20 20" fill="none" xmlns="http://www.w3.org/2000/svg">
<path d="M16.25 12.4994C15.2413 12.4994 14.3288 12.9044 13.6538 13.5544L7.45375 10.4531C7.4725 10.3031 7.5 10.1556 7.5 9.99939C7.5 9.84314 7.4725 9.69564 7.45375 9.54564L13.6538 6.44439C14.3288 7.09439 15.2413 7.49939 16.25 7.49939C18.3175 7.49939 20 5.81689 20 3.74939C20 1.68189 18.3175 -0.000610352 16.25 -0.000610352C14.1825 -0.000610352 12.5 1.68189 12.5 3.74939C12.5 3.90564 12.5275 4.05314 12.5462 4.20314L6.34625 7.30439C5.65071 6.62886 4.7196 6.25049 3.75 6.24939C1.6825 6.24939 0 7.93189 0 9.99939C0 12.0669 1.6825 13.7494 3.75 13.7494C4.75875 13.7494 5.67125 13.3444 6.34625 12.6944L12.5462 15.7956C12.5275 15.9456 12.5 16.0931 12.5 16.2494C12.5 18.3169 14.1825 19.9994 16.25 19.9994C18.3175 19.9994 20 18.3169 20 16.2494C20 14.1819 18.3175 12.4994 16.25 12.4994Z" fill="currentColor" />
<path d="M16.25 12.4994C15.2413 12.4994 14.3288 12.9044 13.6538 13.5544L7.45375 10.4531C7.4725 10.3031 7.5 10.1556 7.5 9.99939C7.5 9.84314 7.4725 9.69564 7.45375 9.54564L13.6538 6.44439C14.3288 7.09439 15.2413 7.49939 16.25 7.49939C18.3175 7.49939 20 5.81689 20 3.74939C20 1.68189 18.3175 -0.000610352 16.25 -0.000610352C14.1825 -0.000610352 12.5 1.68189 12.5 3.74939C12.5 3.90564 12.5275 4.05314 12.5462 4.20314L6.34625 7.30439C5.65071 6.62886 4.7196 6.25049 3.75 6.24939C1.6825 6.24939 0 7.93189 0 9.99939C0 12.0669 1.6825 13.7494 3.75 13.7494C4.75875 13.7494 5.67125 13.3444 6.34625 12.6944L12.5462 15.7956C12.5275 15.9456 12.5 16.0931 12.5 16.2494C12.5 18.3169 14.1825 19.9994 16.25 19.9994C18.3175 19.9994 20 18.3169 20 16.2494C20 14.1819 18.3175 12.4994 16.25 12.4994Z" fill="currentColor" />
</svg>
