<svg width="20" height="20" viewBox="0 0 20 20" fill="none" xmlns="http://www.w3.org/2000/svg">
<path d="M6.63056 17.7185L0.266177 10.884C0.0949661 10.6974 0 10.4532 0 10.2C0 9.94666 0.0949661 9.70258 0.266177 9.51591L1.55226 8.14982C1.63408 8.06122 1.73339 7.99051 1.84388 7.94217C1.95437 7.89381 2.07367 7.86885 2.1943 7.86885C2.31491 7.86885 2.43422 7.89381 2.5447 7.94217C2.65519 7.99051 2.7545 8.06122 2.83634 8.14982L7.27661 12.9362L17.1612 2.28145C17.243 2.19252 17.3424 2.12156 17.4532 2.07299C17.5638 2.02445 17.6835 1.99939 17.8043 1.99939C17.9251 1.99939 18.0447 2.02445 18.1553 2.07299C18.2661 2.12156 18.3655 2.19252 18.4473 2.28145L19.7334 3.64953C19.905 3.83565 20 4.07948 20 4.33258C20 4.58566 19.905 4.82949 19.7334 5.01562L7.91267 17.7165C7.83082 17.8051 7.73154 17.8757 7.62103 17.9241C7.51054 17.9725 7.39123 17.9975 7.27063 17.9975C7.15 17.9975 7.03069 17.9725 6.9202 17.9241C6.80972 17.8757 6.71041 17.8051 6.62858 17.7165" fill="currentColor" />
</svg>
