<svg width="20" height="20" viewBox="0 0 20 20" fill="none" xmlns="http://www.w3.org/2000/svg">
<path d="M20 4.42189C19.265 4.75064 18.4725 4.96939 17.645 5.06689C18.4925 4.55939 19.1412 3.75439 19.45 2.79689C18.6575 3.26564 17.7775 3.60939 16.845 3.79314C16.095 2.99564 15.0287 2.50064 13.8487 2.50064C11.5825 2.50064 9.7475 4.33689 9.7475 6.60189C9.7475 6.92189 9.7825 7.23439 9.8525 7.53564C6.4425 7.36314 3.41875 5.73064 1.395 3.24689C1.04375 3.85189 0.839995 4.55939 0.839995 5.30939C0.839995 6.73189 1.5625 7.98939 2.66375 8.72314C1.99125 8.70314 1.35875 8.51564 0.803745 8.21189C0.803745 8.22814 0.803745 8.24689 0.803745 8.26314C0.803745 10.2519 2.21749 11.9119 4.09624 12.2869C3.7525 12.3806 3.38875 12.4319 3.01375 12.4319C2.74874 12.4319 2.49375 12.4044 2.24 12.3581C2.76375 13.9869 4.27875 15.1744 6.07249 15.2094C4.66624 16.3106 2.9 16.9669 0.974995 16.9669C0.642495 16.9669 0.318745 16.9469 -0.00500488 16.9081C1.815 18.0756 3.97125 18.7519 6.2875 18.7519C13.8337 18.7519 17.9637 12.4981 17.9637 7.07564C17.9637 6.89564 17.96 6.72064 17.9525 6.54439C18.7537 5.97064 19.4487 5.24689 19.9987 4.42314L20 4.42189Z" fill="currentColor" />
</svg>
