<svg width="20" height="20" viewBox="0 0 20 20" fill="none" xmlns="http://www.w3.org/2000/svg">
<path fill-rule="evenodd" clip-rule="evenodd" d="M16.946 2.79546C15.0743 0.92159 12.5852 -0.110705 9.93331 -0.111816C4.46908 -0.111816 0.0220337 4.33501 0.0198109 9.80079C0.019144 11.548 0.475496 13.2533 1.34308 14.7569L-0.063324 19.8939L5.19195 18.5153C6.63992 19.3051 8.27017 19.7214 9.92931 19.7218H9.93331C9.93353 19.7218 9.93309 19.7218 9.93331 19.7218C15.3969 19.7218 19.8444 15.2746 19.8466 9.80857C19.8477 7.15982 18.8176 4.66933 16.946 2.79546ZM5.90749 10.1616C5.78368 9.99618 4.89609 8.81851 4.89609 7.59927C4.89609 6.38004 5.53605 5.78076 5.76301 5.53291C5.98996 5.28506 6.25848 5.22304 6.42364 5.22304C6.5888 5.22304 6.75418 5.2246 6.89844 5.23171C7.05049 5.23949 7.25477 5.17392 7.45571 5.65694C7.66222 6.15286 8.15747 7.37232 8.21949 7.49613C8.2815 7.62017 8.32263 7.76466 8.24016 7.93004C8.15769 8.09519 8.11635 8.19856 7.99253 8.34327C7.86872 8.48797 7.73246 8.66625 7.62087 8.77717C7.49684 8.90076 7.36769 9.0348 7.51217 9.28265C7.65666 9.53072 8.15369 10.3418 8.89012 10.9987C9.83617 11.8427 10.6344 12.1041 10.882 12.2282C11.1297 12.3522 11.2741 12.3315 11.4186 12.1661C11.5631 12.0008 12.0379 11.4428 12.2031 11.195C12.3682 10.9471 12.5334 10.9885 12.7603 11.0709C12.9875 11.1536 14.2052 11.7529 14.4528 11.8767C14.7004 12.0008 14.8656 12.0628 14.9276 12.1661C14.9896 12.2695 14.9896 12.7654 14.7831 13.344C14.5766 13.9226 13.587 14.4508 13.1111 14.5217C12.6843 14.5855 12.1444 14.6122 11.5509 14.4234C11.1912 14.3094 10.7298 14.1569 10.1387 13.9017C7.65421 12.8288 6.03153 10.3269 5.90749 10.1616Z" fill="currentColor" />
</svg>
