<svg width="36" height="36" viewBox="0 0 36 36" fill="none" xmlns="http://www.w3.org/2000/svg">
	<g>
		<path fill-rule="evenodd" clip-rule="evenodd" d="M18 0C8.05888 0 0 8.05888 0 18C0 27.9411 8.05888 36 18 36C27.9411 36 36 27.9411 36 18C36 8.05888 27.9411 0 18 0ZM23.4737 25C20.4507 25 18 22.5493 18 19.5263V18.8095C18 15.0487 21.0487 12 24.8095 12C28.2284 12 31 14.7716 31 18.1905V18.8421C31 22.243 28.243 25 24.8421 25H23.4737Z" fill="#777"/>
		<path fill-rule="evenodd" clip-rule="evenodd" d="M12 30C8.68629 30 6 27.3137 6 24V14C6 9.58172 9.58172 6 14 6H16C18.728 6 20.9458 8.18475 20.999 10.9C18.0388 12.3471 16 15.3878 16 18.9048V19.8421C16 22.9484 17.9786 25.5925 20.7443 26.5829C20.0821 28.5685 18.2082 30 16 30H12Z" fill="#DDD"/>
	</g>
</svg>
