<svg width="24" height="24" viewBox="0 0 24 24" fill="none" xmlns="http://www.w3.org/2000/svg">
	<mask id="mask0" maskUnits="userSpaceOnUse" x="0" y="0" width="24" height="24" style="mask-type: alpha">
		<path d="M24 12C24 5.37258 18.6274 0 12 0C5.37258 0 0 5.37258 0 12C0 18.6274 5.37258 24 12 24C18.6274 24 24 18.6274 24 12Z" fill="#6565F2"/>
	</mask>
	<g mask="url(#mask0)">
		<path d="M0 12C0 5.37258 5.37258 0 12 0C18.6274 0 24 5.37258 24 12C24 18.6274 18.6274 24 12 24C5.37258 24 0 18.6274 0 12Z" fill="#6565F2"/>
		<path d="M18.0001 9.73684C19.1047 9.73684 20.0394 8.81569 19.7116 7.76087C17.739 1.41304 6.26117 1.41304 4.28861 7.76087C3.96084 8.81569 4.89552 9.73684 6.00009 9.73684H18.0001Z" fill="white"/>
		<path d="M5 13.1429C5 13.6162 5.38376 14 5.85714 14H15C15.5523 14 16 13.5523 16 13C16 12.4477 15.5523 12 15 12H6.14286C5.51167 12 5 12.5117 5 13.1429ZM5 17.1429C5 17.6162 5.38376 18 5.85714 18H15C15.5523 18 16 17.5523 16 17C16 16.4477 15.5523 16 15 16H6.14286C5.51167 16 5 16.5117 5 17.1429ZM18 13.1429C18 13.6162 18.3838 14 18.8571 14H19.0909C19.593 14 20 13.593 20 13.0909V12.7692C20 12.3444 19.6556 12 19.2308 12H19.1429C18.5117 12 18 12.5117 18 13.1429ZM18 17.1429C18 17.6162 18.3838 18 18.8571 18H19.0909C19.593 18 20 17.593 20 17.0909V16.7692C20 16.3444 19.6556 16 19.2308 16H19.1429C18.5117 16 18 16.5117 18 17.1429Z" fill="#FFE42E"/>
	</g>
</svg>
