<svg width="24" height="24" viewBox="0 0 24 24" fill="none" xmlns="http://www.w3.org/2000/svg">
<path d="M0 12C0 5.37258 5.37258 0 12 0C18.6274 0 24 5.37258 24 12C24 18.6274 18.6274 24 12 24C5.37258 24 0 18.6274 0 12Z" fill="#6565F2"/>
<path d="M4.53711 9.27507C4.53711 9.80326 4.96529 10.2314 5.49348 10.2314H5.75431C6.31451 10.2314 6.76865 9.77731 6.76865 9.21711V8.85819C6.76865 8.38417 6.38438 7.99991 5.91036 7.99991H5.81227C5.10802 7.99991 4.53711 8.57082 4.53711 9.27507V9.27507Z" fill="#FFE42E"/>
<path d="M8.76855 9.27507C8.76855 9.80326 9.19674 10.2314 9.72493 10.2314H9.98576C10.546 10.2314 11.0001 9.77731 11.0001 9.21711V8.85819C11.0001 8.38417 10.6158 7.99991 10.1418 7.99991H10.0437C9.33947 7.99991 8.76855 8.57082 8.76855 9.27507V9.27507Z" fill="#FFE42E"/>
<path d="M13 9.14286C13 9.61624 13.3838 10 13.8571 10H18C18.5523 10 19 9.55228 19 9V9C19 8.44772 18.5523 8 18 8H14.1429C13.5117 8 13 8.51167 13 9.14286V9.14286Z" fill="white"/>
<path d="M4 13.8981C4 15.7391 5.49238 17.2314 7.33333 17.2314H16.6667C18.5076 17.2314 20 15.7391 20 13.8981V13.8981C20 12.9776 19.2538 12.2314 18.3333 12.2314H5.66667C4.74619 12.2314 4 12.9776 4 13.8981V13.8981Z" fill="white"/>
</svg>
