<svg width="24" height="24" fill="none" xmlns="http://www.w3.org/2000/svg">
	<path fill-rule="evenodd" clip-rule="evenodd" d="M0 12C0 5.37258 5.37258 0 12 0c6.6274 0 12 5.37258 12 12 0 6.6274-5.3726 12-12 12-6.62742 0-12-5.3726-12-12zm10 7c-.55228 0-1-.4477-1-1s.44772-1 1-1h4c.5523 0 1 .4477 1 1s-.4477 1-1 1h-4zm0 2c-1.65685 0-3-1.3431-3-3s1.34315-3 3-3h4c1.6569 0 3 1.3431 3 3s-1.3431 3-3 3h-4zM8 4C5.79086 4 4 5.79086 4 8v3c0 1.1046.89543 2 2 2h12c1.1046 0 2-.8954 2-2V8c0-2.20914-1.7909-4-4-4H8z" fill="#6565F2"/>
</svg>
