<svg width="24" height="24" viewBox="0 0 24 24" fill="none" xmlns="http://www.w3.org/2000/svg">
<path fill-rule="evenodd" clip-rule="evenodd" d="M12 -1.04907e-06C5.37258 2.78888e-07 -2.78888e-07 5.37258 1.04907e-06 12C4.69687e-07 18.6274 5.37258 24 12 24C18.6274 24 24 18.6274 24 12C24 5.37258 18.6274 -4.69688e-07 12 -1.04907e-06ZM5.85714 10C5.38376 10 5 9.61624 5 9.14286C5 8.51168 5.51167 8 6.14286 8L18 8C18.5523 8 19 8.44772 19 9C19 9.55228 18.5523 10 18 10L5.85714 10ZM7 13.1429C7 13.6162 7.38376 14 7.85714 14L16 14C16.5523 14 17 13.5523 17 13C17 12.4477 16.5523 12 16 12L8.14286 12C7.51168 12 7 12.5117 7 13.1429ZM10.8571 18C10.3838 18 10 17.6162 10 17.1429C10 16.5117 10.5117 16 11.1429 16L13 16C13.5523 16 14 16.4477 14 17C14 17.5523 13.5523 18 13 18L10.8571 18Z" fill="#6565F2"/>
</svg>
