<svg viewBox="0 0 24 24" fill="none" xmlns="http://www.w3.org/2000/svg">
	<path fill-rule="evenodd" clip-rule="evenodd" d="M12 24C5.37258 24 0 18.6274 0 12C0 5.37258 5.37258 0 12 0C18.6274 0 24 5.37258 24 12C24 18.6274 18.6274 24 12 24ZM17 17C19.2091 17 21 15.2091 21 13C21 11.8954 20.1046 11 19 11H16C14.8954 11 14 11.8954 14 13V15C14 16.1046 14.8954 17 16 17H17ZM8 20C5.79086 20 4 18.2091 4 16V8C4 6.48581 4.84135 5.16813 6.08206 4.48894C7.05095 3.95855 8 4.89543 8 6V9C8 10.1046 8.89543 11 10 11C11.1046 11 12 11.8954 12 13V18C12 19.1046 11.1046 20 10 20H8ZM16 9C17.1046 9 18 8.10457 18 7C18 4.79086 16.2091 3 14 3H12C10.8954 3 10 3.89543 10 5V7C10 8.10457 10.8954 9 12 9H16Z" fill="#6565F2"/>
</svg>
