<svg width="24" height="24" fill="none" xmlns="http://www.w3.org/2000/svg">
	<path fill-rule="evenodd" clip-rule="evenodd" d="M12 0C5.37258 0 0 5.37258 0 12c0 6.6274 5.37258 12 12 12 6.6274 0 12-5.3726 12-12 0-6.62742-5.3726-12-12-12zM5.85714 8C5.38376 8 5 7.61624 5 7.14286 5 6.51167 5.51167 6 6.14286 6H18c.5523 0 1 .44772 1 1s-.4477 1-1 1H5.85714zM5 12.1429c0 .4733.38376.8571.85714.8571H18c.5523 0 1-.4477 1-1s-.4477-1-1-1H6.14286C5.51167 11 5 11.5117 5 12.1429zM5.85714 18C5.38376 18 5 17.6162 5 17.1429 5 16.5117 5.51167 16 6.14286 16H18c.5523 0 1 .4477 1 1s-.4477 1-1 1H5.85714z" fill="#6565F2"/>
</svg>
